<?xml version="1.0" encoding="iso-8859-1"?>
<!-- Generator: Adobe Illustrator 19.0.0, SVG Export Plug-In . SVG Version: 6.00 Build 0)  -->
<svg version="1.1" id="Capa_1" xmlns="http://www.w3.org/2000/svg" xmlns:xlink="http://www.w3.org/1999/xlink" x="0px" y="0px"
	 viewBox="0 0 512 512" style="enable-background:new 0 0 512 512;" xml:space="preserve">
<path style="fill:#5C626B;" d="M47.053,62.84C28.755,61.065,12.296,74.119,9.859,92.342C4.739,130.63,4.028,197.132,47.38,246.256
	l141.005-111.842C150.42,81.017,85.502,66.57,47.053,62.84z"/>
<path style="fill:#F3C0CC;" d="M74.954,224.384c-30.576-33.802-34.211-79.954-31.847-112.82c0.551-7.662,7.507-13.179,15.094-11.972
	c32.54,5.18,76.654,19.226,102.608,56.694L74.954,224.384z"/>
<path style="opacity:0.1;enable-background:new    ;" d="M58.201,99.592c-7.586-1.208-14.543,4.31-15.094,11.972
	c-0.132,1.831-0.241,3.71-0.332,5.619c21.643,1.11,66.21,29.573,86.463,64.146l31.572-25.042
	C134.855,118.818,90.741,104.772,58.201,99.592z"/>
<path style="fill:#5C626B;" d="M464.946,62.84c18.299-1.775,34.757,11.279,37.195,29.501c5.121,38.288,5.831,104.79-37.521,153.914
	L323.615,134.414C361.58,81.017,426.497,66.57,464.946,62.84z"/>
<path style="fill:#F3C0CC;" d="M437.045,224.384c30.576-33.802,34.211-79.954,31.847-112.82
	c-0.551-7.662-7.507-13.179-15.094-11.972c-32.54,5.18-76.654,19.226-102.608,56.694L437.045,224.384z"/>
<path style="opacity:0.1;enable-background:new    ;" d="M453.798,99.592c7.586-1.208,14.543,4.31,15.094,11.972
	c0.132,1.831,0.241,3.71,0.332,5.619c-21.643,1.11-66.21,29.573-86.463,64.146l-31.572-25.042
	C377.144,118.818,421.258,104.772,453.798,99.592z"/>
<path style="fill:#F3C0CC;" d="M293.703,393.354L293.703,393.354c-25.666-4.707-51.973-4.707-77.639,0l0,0
	c-11.091,2.033-15.996,15.168-8.954,23.974l11.735,14.674c18.473,23.099,53.603,23.099,72.076,0l11.735-14.674
	C309.699,408.522,304.793,395.388,293.703,393.354z"/>
<path style="fill:#5C626B;" d="M477.664,430.007c-1.149,0-2.315-0.115-3.486-0.355c-9.357-1.915-15.39-11.053-13.475-20.41
	c2.816-13.766,4.246-27.941,4.246-42.129c0-115.215-93.734-208.949-208.949-208.949S47.051,251.899,47.051,367.114
	c0,14.188,1.428,28.362,4.246,42.129c1.915,9.357-4.119,18.495-13.475,20.41c-9.351,1.916-18.495-4.118-20.411-13.475
	c-3.284-16.044-4.949-32.551-4.949-49.063c0-134.286,109.25-243.537,243.537-243.537s243.537,109.25,243.537,243.537
	c0,16.512-1.665,33.019-4.949,49.063C492.913,424.364,485.707,430.007,477.664,430.007z"/>
<path style="opacity:0.1;enable-background:new    ;" d="M229.263,391.366c-4.414,0.529-8.816,1.185-13.198,1.988
	c-11.091,2.033-15.996,15.168-8.954,23.974l11.735,14.674c13.115,16.4,34.624,21.143,52.609,14.255
	C235.443,442.783,226.282,403.309,229.263,391.366z"/>
<path d="M181.237,384.909l-67.671-19.032c-3.988-1.12-8.13,1.203-9.252,5.19c-1.122,3.989,1.202,8.13,5.19,9.252l67.671,19.032
	c0.679,0.191,1.362,0.282,2.034,0.282c3.276,0,6.286-2.163,7.217-5.472C187.549,390.173,185.225,386.03,181.237,384.909z
	 M175.508,421.587l-69.601,9.87c-4.103,0.581-6.955,4.378-6.374,8.481c0.531,3.745,3.742,6.449,7.417,6.449
	c0.351,0,0.706-0.024,1.063-0.075l69.601-9.87c4.103-0.582,6.955-4.379,6.374-8.481
	C183.407,423.858,179.603,421.003,175.508,421.587z M295.056,385.976c-26.657-4.888-53.689-4.889-80.343,0
	c-7.829,1.435-14.167,6.744-16.951,14.201c-2.785,7.457-1.48,15.62,3.492,21.837l11.735,14.674
	c10.236,12.799,25.507,20.141,41.897,20.141s31.66-7.341,41.897-20.141l11.734-14.674c4.972-6.216,6.276-14.38,3.492-21.837
	C309.222,392.72,302.885,387.411,295.056,385.976z M296.798,412.643l-11.734,14.674c-7.373,9.22-18.373,14.508-30.179,14.508
	s-22.806-5.288-30.179-14.509l-11.735-14.673c-2.368-2.962-1.596-6.034-1.154-7.217c0.442-1.183,1.872-4.01,5.603-4.694
	c12.431-2.279,24.948-3.42,37.467-3.42c12.518,0,25.036,1.14,37.466,3.42c3.73,0.684,5.16,3.511,5.603,4.694
	C298.394,406.61,299.166,409.681,296.798,412.643z M332.592,399.352l67.67-19.032c3.988-1.121,6.312-5.264,5.19-9.252
	c-1.121-3.988-5.264-6.313-9.252-5.19l-67.67,19.032c-3.988,1.122-6.313,5.264-5.19,9.253c0.931,3.31,3.94,5.472,7.217,5.472
	C331.23,399.634,331.913,399.543,332.592,399.352z M509.575,91.347c-2.99-22.349-22.916-38.152-45.355-35.973
	c-36.237,3.516-102.105,17.241-142.746,69.381c-20.884-5.648-42.831-8.68-65.476-8.68c-22.645,0-44.592,3.032-65.476,8.68
	c-22.781-29.278-55.822-49.922-98.314-61.381c-4.001-1.079-8.116,1.29-9.196,5.289c-1.079,4,1.289,8.117,5.289,9.196
	c37.016,9.983,66.137,27.328,86.735,51.617c-6.838,2.336-13.538,4.969-20.098,7.865c-27.962-29.076-67.068-40.622-95.559-45.158
	c-5.685-0.903-11.526,0.622-16.026,4.191c-4.498,3.569-7.315,8.909-7.728,14.651c-2.053,28.536,0.229,68.934,21.808,102.679
	c-4.39,5.669-8.549,11.526-12.45,17.565c-33.716-46.397-32.01-105.635-27.69-137.933c1.914-14.308,14.666-24.424,29.036-23.03
	c4.123,0.395,7.789-2.619,8.189-6.742c0.4-4.124-2.618-7.79-6.742-8.19C25.335,53.186,5.414,68.999,2.424,91.348
	c-4.782,35.755-6.457,102.442,34.243,153.772C16.486,281.259,4.962,322.864,4.962,367.114c0,17.013,1.716,34.027,5.101,50.567
	c1.328,6.488,5.105,12.072,10.634,15.722c4.104,2.708,8.805,4.111,13.608,4.111c1.669,0,3.351-0.169,5.022-0.512
	c13.393-2.741,22.061-15.869,19.319-29.263c-2.716-13.275-4.094-26.943-4.094-40.624c0-111.078,90.368-201.447,201.447-201.447
	s201.447,90.369,201.447,201.447c0,13.681-1.377,27.349-4.094,40.624c-2.741,13.394,5.925,26.522,19.318,29.263
	c1.643,0.336,3.323,0.507,4.991,0.507c11.713,0,21.922-8.339,24.274-19.828c0.536-2.619,1.038-5.299,1.493-7.962
	c0.698-4.084-2.047-7.959-6.131-8.658c-4.083-0.695-7.959,2.048-8.657,6.131c-0.428,2.503-0.9,5.021-1.403,7.48
	c-0.929,4.539-4.956,7.833-9.576,7.833c-0.659,0-1.326-0.068-1.981-0.202c-5.29-1.083-8.714-6.268-7.63-11.558
	c2.919-14.263,4.398-28.942,4.398-43.632c0-119.35-97.099-216.45-216.45-216.45S39.55,247.763,39.55,367.114
	c0,14.69,1.479,29.369,4.398,43.632c1.082,5.29-2.341,10.475-7.631,11.558c-2.563,0.523-5.174,0.019-7.355-1.422
	c-2.185-1.441-3.677-3.648-4.201-6.208c-3.183-15.553-4.796-31.554-4.796-47.56c0-43.263,11.711-83.836,32.113-118.739
	c0.012-0.019,0.022-0.039,0.034-0.058c6.083-10.4,12.939-20.293,20.488-29.603c0.029-0.037,0.06-0.072,0.088-0.109
	c22.408-27.606,50.911-50.067,83.444-65.323c0.018-0.008,0.035-0.017,0.053-0.025c10.818-5.07,22.079-9.344,33.711-12.742
	c0.002-0.001,0.004-0.001,0.006-0.002c20.984-6.131,43.162-9.433,66.099-9.433c35.655,0,69.48,7.961,99.816,22.177
	c0.018,0.008,0.036,0.017,0.054,0.025c32.533,15.256,61.036,37.717,83.444,65.323c0.028,0.037,0.059,0.072,0.088,0.109
	c7.549,9.312,14.405,19.204,20.488,29.603c0.012,0.019,0.022,0.039,0.034,0.058c20.402,34.902,32.113,75.477,32.113,118.739
	c0,4.143,3.358,7.501,7.501,7.501c4.143,0,7.501-3.359,7.501-7.501c0-44.251-11.524-85.854-31.706-121.994
	C516.033,193.79,514.357,127.104,509.575,91.347z M67.541,201.467c-17.02-29.471-18.752-64.324-16.951-89.366
	c0.114-1.584,0.855-2.996,2.088-3.973c1.233-0.978,2.778-1.376,4.344-1.128c24.976,3.976,58.727,13.688,83.57,37.226
	C112.808,158.669,88.055,178.157,67.541,201.467z M371.408,144.226c24.842-23.537,58.593-33.25,83.569-37.226
	c1.566-0.248,3.112,0.15,4.345,1.128c1.232,0.978,1.974,2.388,2.088,3.974c1.801,25.04,0.069,59.893-16.951,89.365
	C423.945,178.157,399.191,158.669,371.408,144.226z M454.565,213.704c21.58-33.745,23.861-74.143,21.808-102.678
	c-0.412-5.743-3.23-11.084-7.728-14.652c-4.499-3.568-10.339-5.094-16.027-4.191c-28.49,4.536-67.596,16.082-95.558,45.158
	c-6.552-2.894-13.245-5.524-20.076-7.857c37.465-44.029,95.972-56.004,128.685-59.178c14.373-1.397,27.121,8.723,29.036,23.03
	c4.32,32.298,6.026,91.535-27.691,137.933C463.114,225.23,458.955,219.374,454.565,213.704z M403.859,431.455l-69.601-9.87
	c-4.101-0.581-7.897,2.272-8.48,6.374c-0.581,4.102,2.271,7.898,6.374,8.481l69.6,9.87c0.357,0.051,0.712,0.075,1.063,0.075
	c3.676,0,6.886-2.704,7.417-6.449C410.815,435.834,407.962,432.037,403.859,431.455z"/>
<g>
</g>
<g>
</g>
<g>
</g>
<g>
</g>
<g>
</g>
<g>
</g>
<g>
</g>
<g>
</g>
<g>
</g>
<g>
</g>
<g>
</g>
<g>
</g>
<g>
</g>
<g>
</g>
<g>
</g>
</svg>
